<?xml version="1.0" encoding="UTF-8" standalone="no"?>
<svg
   version="1.1"
   style="display: block;"
   viewBox="0 0 1024 1024"
   width="256"
   height="256"
   preserveAspectRatio="none"
   id="svg3"
   sodipodi:docname="logo-dark.svg"
   inkscape:version="1.3.2 (091e20e, 2023-11-25)"
   xmlns:inkscape="http://www.inkscape.org/namespaces/inkscape"
   xmlns:sodipodi="http://sodipodi.sourceforge.net/DTD/sodipodi-0.dtd"
   xmlns="http://www.w3.org/2000/svg"
   xmlns:svg="http://www.w3.org/2000/svg">
  <defs
     id="defs3" />
  <sodipodi:namedview
     id="namedview3"
     pagecolor="#ffffff"
     bordercolor="#000000"
     borderopacity="0.25"
     inkscape:showpageshadow="2"
     inkscape:pageopacity="0.0"
     inkscape:pagecheckerboard="true"
     inkscape:deskcolor="#d1d1d1"
     inkscape:zoom="1.6829174"
     inkscape:cx="130.13117"
     inkscape:cy="135.18192"
     inkscape:window-width="1744"
     inkscape:window-height="710"
     inkscape:window-x="1758"
     inkscape:window-y="356"
     inkscape:window-maximized="0"
     inkscape:current-layer="svg3" />
  <path
     id="path2"
     d="M 516.29688 55.265625 C 515.03088 55.239325 512.92656 55.288488 511.72656 55.429688 C 408.05067 63.569279 384.4411 168.13052 357.20312 249.02344 L 304.14844 405.55469 C 298.31044 422.98267 287.93786 461.21489 277.29688 474.67188 C 267.78188 486.70486 232.7888 499.67888 217.25781 506.79688 C 190.65084 518.99086 167.2486 533.14258 141.76562 547.10156 C 85.720181 577.80253 30.093744 603.92095 36.148438 678.67188 C 38.318035 705.07785 50.767333 729.58145 70.820312 746.89844 C 95.571288 767.96142 132.10484 778.46289 161.00781 793.29688 C 202.96177 814.83085 244.86617 836.39171 286.95312 857.67969 C 326.39709 877.63067 364.25629 901.47483 402.90625 923.00781 C 419.62123 932.3208 436.1097 943.36626 453.55469 951.15625 C 472.07367 959.55324 492.1514 963.96756 512.48438 964.10156 C 569.12632 964.14856 592.12842 944.57253 637.10938 916.85156 C 688.54709 887.44864 763.40106 843.94847 827.25 811.8125 L 908.0625 770.32031 C 924.56848 762.00132 944.01758 752.53717 957.60156 739.24219 C 994.73753 702.71922 996.1724 637.34546 960.52344 599.5625 C 949.21645 587.57951 928.90811 575.8088 914.45312 567.88281 C 877.87516 547.82683 842.6949 527.0691 807.08594 505.20312 C 792.39995 496.18613 772.54749 487.26367 760.3125 474.55469 C 748.16551 458.8217 738.35562 424.07723 731.51562 404.15625 C 719.39764 369.30128 707.50655 334.36453 695.85156 299.35156 C 684.49957 264.6016 673.92636 230.72734 660.85938 196.35938 C 650.34239 168.6964 643.40336 145.62291 626.10938 120.33594 C 600.7214 83.213675 562.43483 56.223824 516.29688 55.265625 z M 492.125 127.8125 L 493.69531 128.21094 C 499.31431 134.58193 510.73069 224.62239 513.17969 239.98438 C 515.79468 255.65936 518.62088 271.29464 521.67188 286.89062 C 528.34787 321.60159 535.84176 355.91978 543.59375 390.21875 C 557.51174 453.13669 569.14059 515.07675 596.60156 573.80469 C 615.31954 613.83565 630.19779 643.13027 669.21875 668.03125 C 698.16972 686.50623 733.34397 702.52268 768.83594 696.80469 C 784.92592 694.21269 812.233 678.62742 807.375 658.89844 C 798.62301 628.46147 759.23654 624.33543 734.22656 614.14844 C 703.00859 601.43145 672.72898 579.28835 654.875 550.23438 C 632.61502 513.60241 624.2623 471.7134 613.32031 431.02344 C 598.89933 377.40249 586.06843 323.58363 574.39844 269.30469 C 569.57344 246.67471 566.24168 221.27916 562.17969 198.24219 C 558.05269 175.78421 553.48274 153.40879 548.46875 131.13281 C 582.61472 150.75179 589.78289 174.45622 602.92188 209.49219 C 635.12984 295.5321 659.02622 384.2979 692.36719 470.00781 C 700.09418 489.87179 712.17577 537.42707 728.84375 549.41406 C 749.50573 564.27405 781.15171 571.36401 805.42969 584 C 825.19967 594.97699 844.6484 607.98282 864.73438 620.00781 C 896.07434 638.76879 958.37276 660.74835 902.00781 699.44531 C 891.36982 706.75031 877.3918 712.15844 865.63281 717.77344 C 786.81389 763.58044 713.05692 802.40973 636.5 844.42969 C 612.77802 857.46167 587.39748 868.38758 564.3125 883.10156 C 541.49152 897.64655 516.03372 900.33337 489.71875 894.23438 C 456.87478 884.43938 428.40572 860.38473 398.34375 844.71875 C 354.54279 821.89377 311.93271 797.04248 268.59375 773.6875 C 236.12478 756.55852 203.46115 739.79061 170.61719 723.39062 C 155.0202 715.63663 139.3528 708.34299 123.75781 700.25 C 106.06683 691.06901 97.147879 681.4931 101.48438 660.32812 C 102.30337 656.33013 110.4325 647.15662 114.0625 644.76562 C 148.98147 621.76565 185.67248 597.18148 224.14844 580.6875 C 234.16343 576.5275 257.47733 586.63018 278.94531 574.74219 C 294.1073 566.3462 306.59895 556.62048 315.08594 541.1875 C 331.36292 511.59153 344.70207 472.86816 355.91406 441.24219 C 371.72205 397.09623 386.78314 352.69021 401.07812 308.03125 C 413.52011 269.22429 425.69689 230.01284 438.79688 191.42188 C 449.11586 161.02191 462.93403 141.64149 492.125 127.8125 z "
     style="fill:#ffffff" />
</svg>
